<svg xmlns="http://www.w3.org/2000/svg" viewBox="0 0 44 44" fill="none">
  <defs>
    <linearGradient id="grad1" x1="0%" y1="0%" x2="100%" y2="100%">
      <stop offset="0%" style="stop-color:#6366f1;stop-opacity:1" />
      <stop offset="100%" style="stop-color:#8b5cf6;stop-opacity:1" />
    </linearGradient>
  </defs>
  <g transform="translate(3, 3)">
    <path d="M18 30 L22 18 L30 14 L26 22 Z" fill="url(#grad1)" />
    <path d="M30 14 C30 14 35 9 38 6 C35 6 28 8 28 8 L30 14Z" fill="url(#grad1)" />
    <circle cx="32" cy="10" r="2" fill="white" opacity="0.8"/>
    <path d="M18 30 L15 33 L17 35 L20 32Z" fill="#a78bfa" opacity="0.7"/>
    <path d="M22 18 L18 16 L16 20 L18 22Z" fill="#a78bfa" opacity="0.7"/>
    <path d="M14 34 Q10 38 6 36" stroke="#c4b5fd" stroke-width="1.5" fill="none" stroke-linecap="round"/>
    <path d="M12 36 Q8 40 4 39" stroke="#ddd6fe" stroke-width="1" fill="none" stroke-linecap="round"/>
  </g>
</svg>
